<mxfile host="app.diagrams.net" agent="Mozilla/5.0 (Windows NT 10.0; Win64; x64; rv:126.0) Gecko/20100101 Firefox/126.0" version="24.7.14">
  <diagram name="Page-1" id="ItuPcejKKoLAVJ6YyNsb">
    <mxGraphModel dx="2440" dy="1334" grid="1" gridSize="10" guides="1" tooltips="1" connect="1" arrows="1" fold="1" page="1" pageScale="1" pageWidth="827" pageHeight="1169" math="0" shadow="0">
      <root>
        <mxCell id="0" />
        <mxCell id="1" parent="0" />
        <mxCell id="ldyb5yx-wMgwqtrKaOPo-1" value="" style="rounded=0;whiteSpace=wrap;html=1;" vertex="1" parent="1">
          <mxGeometry width="1640" height="80" as="geometry" />
        </mxCell>
        <mxCell id="ldyb5yx-wMgwqtrKaOPo-8" value="" style="verticalLabelPosition=bottom;shadow=0;dashed=0;align=center;html=1;verticalAlign=top;strokeWidth=1;shape=mxgraph.mockup.graphics.simpleIcon;strokeColor=#999999;" vertex="1" parent="1">
          <mxGeometry x="80" y="20" width="40" height="40" as="geometry" />
        </mxCell>
        <mxCell id="ldyb5yx-wMgwqtrKaOPo-9" value="&lt;div style=&quot;font-size: 18px;&quot;&gt;&lt;font style=&quot;font-size: 18px;&quot;&gt;Dashboard&lt;/font&gt;&lt;/div&gt;" style="text;html=1;align=center;verticalAlign=middle;whiteSpace=wrap;rounded=0;" vertex="1" parent="1">
          <mxGeometry x="130" y="25" width="100" height="30" as="geometry" />
        </mxCell>
        <mxCell id="ldyb5yx-wMgwqtrKaOPo-10" value="" style="verticalLabelPosition=bottom;shadow=0;dashed=0;align=center;html=1;verticalAlign=top;strokeWidth=1;shape=mxgraph.mockup.containers.userMale;strokeColor=#666666;strokeColor2=#008cff;perimeterSpacing=0;" vertex="1" parent="1">
          <mxGeometry x="1570" y="20" width="40" height="40" as="geometry" />
        </mxCell>
        <mxCell id="ldyb5yx-wMgwqtrKaOPo-20" value="" style="rounded=1;whiteSpace=wrap;html=1;" vertex="1" parent="1">
          <mxGeometry x="20" y="20" width="40" height="40" as="geometry" />
        </mxCell>
        <mxCell id="ldyb5yx-wMgwqtrKaOPo-11" value="" style="rounded=1;whiteSpace=wrap;html=1;" vertex="1" parent="1">
          <mxGeometry x="1510" y="20" width="40" height="40" as="geometry" />
        </mxCell>
        <mxCell id="ldyb5yx-wMgwqtrKaOPo-15" value="" style="line;strokeWidth=1;direction=south;html=1;" vertex="1" parent="1">
          <mxGeometry x="1270" y="25" width="10" height="30" as="geometry" />
        </mxCell>
        <mxCell id="ldyb5yx-wMgwqtrKaOPo-17" value="" style="rounded=1;whiteSpace=wrap;html=1;" vertex="1" parent="1">
          <mxGeometry x="1450" y="20" width="40" height="40" as="geometry" />
        </mxCell>
        <mxCell id="ldyb5yx-wMgwqtrKaOPo-18" value="" style="rounded=1;whiteSpace=wrap;html=1;" vertex="1" parent="1">
          <mxGeometry x="1390" y="20" width="40" height="40" as="geometry" />
        </mxCell>
        <mxCell id="ldyb5yx-wMgwqtrKaOPo-19" value="" style="rounded=1;whiteSpace=wrap;html=1;" vertex="1" parent="1">
          <mxGeometry x="1290" y="20" width="80" height="40" as="geometry" />
        </mxCell>
        <mxCell id="ldyb5yx-wMgwqtrKaOPo-21" value="" style="line;strokeWidth=2;html=1;" vertex="1" parent="1">
          <mxGeometry x="30" y="35" width="20" height="10" as="geometry" />
        </mxCell>
        <mxCell id="ldyb5yx-wMgwqtrKaOPo-22" value="" style="line;strokeWidth=2;html=1;" vertex="1" parent="1">
          <mxGeometry x="30" y="30" width="20" height="5" as="geometry" />
        </mxCell>
        <mxCell id="ldyb5yx-wMgwqtrKaOPo-23" value="" style="line;strokeWidth=2;html=1;" vertex="1" parent="1">
          <mxGeometry x="30" y="45" width="20" height="5" as="geometry" />
        </mxCell>
        <mxCell id="ldyb5yx-wMgwqtrKaOPo-25" value="" style="rounded=1;whiteSpace=wrap;html=1;" vertex="1" parent="1">
          <mxGeometry x="900" y="20" width="360" height="40" as="geometry" />
        </mxCell>
        <mxCell id="ldyb5yx-wMgwqtrKaOPo-26" value="" style="verticalLabelPosition=bottom;shadow=0;dashed=0;align=center;html=1;verticalAlign=top;strokeWidth=1;shape=mxgraph.mockup.graphics.simpleIcon;strokeColor=#999999;" vertex="1" parent="1">
          <mxGeometry x="1517.5" y="27.5" width="25" height="25" as="geometry" />
        </mxCell>
        <mxCell id="ldyb5yx-wMgwqtrKaOPo-27" value="" style="verticalLabelPosition=bottom;shadow=0;dashed=0;align=center;html=1;verticalAlign=top;strokeWidth=1;shape=mxgraph.mockup.graphics.simpleIcon;strokeColor=#999999;" vertex="1" parent="1">
          <mxGeometry x="1457.5" y="27.5" width="25" height="25" as="geometry" />
        </mxCell>
        <mxCell id="ldyb5yx-wMgwqtrKaOPo-28" value="" style="verticalLabelPosition=bottom;shadow=0;dashed=0;align=center;html=1;verticalAlign=top;strokeWidth=1;shape=mxgraph.mockup.graphics.simpleIcon;strokeColor=#999999;" vertex="1" parent="1">
          <mxGeometry x="1397.5" y="27.5" width="25" height="25" as="geometry" />
        </mxCell>
        <mxCell id="ldyb5yx-wMgwqtrKaOPo-29" value="" style="verticalLabelPosition=bottom;shadow=0;dashed=0;align=center;html=1;verticalAlign=top;strokeWidth=1;shape=mxgraph.mockup.graphics.simpleIcon;strokeColor=#999999;" vertex="1" parent="1">
          <mxGeometry x="1302.5" y="27.5" width="25" height="25" as="geometry" />
        </mxCell>
        <mxCell id="ldyb5yx-wMgwqtrKaOPo-30" value="" style="verticalLabelPosition=bottom;shadow=0;dashed=0;align=center;html=1;verticalAlign=top;strokeWidth=1;shape=mxgraph.mockup.graphics.simpleIcon;strokeColor=#999999;" vertex="1" parent="1">
          <mxGeometry x="1332.5" y="27.5" width="25" height="25" as="geometry" />
        </mxCell>
        <mxCell id="ldyb5yx-wMgwqtrKaOPo-31" value="&lt;div&gt;Type / to search&lt;/div&gt;" style="text;html=1;align=center;verticalAlign=middle;whiteSpace=wrap;rounded=0;" vertex="1" parent="1">
          <mxGeometry x="940" y="25" width="100" height="30" as="geometry" />
        </mxCell>
        <mxCell id="ldyb5yx-wMgwqtrKaOPo-32" value="" style="verticalLabelPosition=bottom;shadow=0;dashed=0;align=center;html=1;verticalAlign=top;strokeWidth=1;shape=mxgraph.mockup.graphics.simpleIcon;strokeColor=#999999;" vertex="1" parent="1">
          <mxGeometry x="910" y="27.5" width="25" height="25" as="geometry" />
        </mxCell>
        <mxCell id="ldyb5yx-wMgwqtrKaOPo-33" value="" style="rounded=0;whiteSpace=wrap;html=1;fillColor=#E6E6E6;" vertex="1" parent="1">
          <mxGeometry y="80" width="380" height="1080" as="geometry" />
        </mxCell>
        <mxCell id="ldyb5yx-wMgwqtrKaOPo-34" value="" style="rounded=0;whiteSpace=wrap;html=1;fillColor=#B3B3B3;" vertex="1" parent="1">
          <mxGeometry x="380" y="80" width="1260" height="1080" as="geometry" />
        </mxCell>
        <mxCell id="ldyb5yx-wMgwqtrKaOPo-36" value="Username" style="text;html=1;align=center;verticalAlign=middle;whiteSpace=wrap;rounded=0;" vertex="1" parent="1">
          <mxGeometry x="61.87" y="145" width="60" height="30" as="geometry" />
        </mxCell>
        <mxCell id="ldyb5yx-wMgwqtrKaOPo-37" value="" style="verticalLabelPosition=bottom;shadow=0;dashed=0;align=center;html=1;verticalAlign=top;strokeWidth=1;shape=mxgraph.mockup.containers.userMale;strokeColor=#666666;strokeColor2=#008cff;perimeterSpacing=0;" vertex="1" parent="1">
          <mxGeometry x="20" y="147.5" width="25" height="25" as="geometry" />
        </mxCell>
        <mxCell id="ldyb5yx-wMgwqtrKaOPo-38" value="" style="triangle;whiteSpace=wrap;html=1;rotation=90;" vertex="1" parent="1">
          <mxGeometry x="131.75" y="156.5" width="8.25" height="11" as="geometry" />
        </mxCell>
        <mxCell id="ldyb5yx-wMgwqtrKaOPo-39" value="Top repositories" style="text;html=1;align=center;verticalAlign=middle;whiteSpace=wrap;rounded=0;" vertex="1" parent="1">
          <mxGeometry x="14" y="202.5" width="100" height="30" as="geometry" />
        </mxCell>
        <mxCell id="ldyb5yx-wMgwqtrKaOPo-40" value="" style="rounded=1;whiteSpace=wrap;html=1;" vertex="1" parent="1">
          <mxGeometry x="280" y="200" width="70" height="30" as="geometry" />
        </mxCell>
        <mxCell id="ldyb5yx-wMgwqtrKaOPo-41" value="" style="verticalLabelPosition=bottom;shadow=0;dashed=0;align=center;html=1;verticalAlign=top;strokeWidth=1;shape=mxgraph.mockup.graphics.simpleIcon;strokeColor=#999999;" vertex="1" parent="1">
          <mxGeometry x="286" y="202.5" width="25" height="25" as="geometry" />
        </mxCell>
        <mxCell id="ldyb5yx-wMgwqtrKaOPo-42" value="New" style="text;html=1;align=center;verticalAlign=middle;whiteSpace=wrap;rounded=0;" vertex="1" parent="1">
          <mxGeometry x="310" y="200" width="40" height="30" as="geometry" />
        </mxCell>
        <mxCell id="ldyb5yx-wMgwqtrKaOPo-43" value="" style="rounded=1;whiteSpace=wrap;html=1;" vertex="1" parent="1">
          <mxGeometry x="20" y="240" width="330" height="30" as="geometry" />
        </mxCell>
        <mxCell id="ldyb5yx-wMgwqtrKaOPo-44" value="Find a repository..." style="text;html=1;align=center;verticalAlign=middle;whiteSpace=wrap;rounded=0;" vertex="1" parent="1">
          <mxGeometry x="20" y="240" width="120" height="30" as="geometry" />
        </mxCell>
        <mxCell id="ldyb5yx-wMgwqtrKaOPo-45" value="" style="verticalLabelPosition=bottom;shadow=0;dashed=0;align=center;html=1;verticalAlign=top;strokeWidth=1;shape=mxgraph.mockup.containers.userMale;strokeColor=#666666;strokeColor2=#008cff;perimeterSpacing=0;" vertex="1" parent="1">
          <mxGeometry x="20" y="295" width="20" height="20" as="geometry" />
        </mxCell>
        <mxCell id="ldyb5yx-wMgwqtrKaOPo-46" value="quoicoubeh/apayan-cpp" style="text;html=1;align=center;verticalAlign=middle;whiteSpace=wrap;rounded=0;" vertex="1" parent="1">
          <mxGeometry x="50" y="290" width="140" height="30" as="geometry" />
        </mxCell>
        <mxCell id="ldyb5yx-wMgwqtrKaOPo-47" value="" style="verticalLabelPosition=bottom;shadow=0;dashed=0;align=center;html=1;verticalAlign=top;strokeWidth=1;shape=mxgraph.mockup.containers.userMale;strokeColor=#666666;strokeColor2=#008cff;perimeterSpacing=0;" vertex="1" parent="1">
          <mxGeometry x="20" y="320" width="20" height="20" as="geometry" />
        </mxCell>
        <mxCell id="ldyb5yx-wMgwqtrKaOPo-48" value="roblox/v8datamodel" style="text;html=1;align=center;verticalAlign=middle;whiteSpace=wrap;rounded=0;" vertex="1" parent="1">
          <mxGeometry x="48" y="315" width="120" height="30" as="geometry" />
        </mxCell>
        <mxCell id="ldyb5yx-wMgwqtrKaOPo-49" value="" style="verticalLabelPosition=bottom;shadow=0;dashed=0;align=center;html=1;verticalAlign=top;strokeWidth=1;shape=mxgraph.mockup.containers.userMale;strokeColor=#666666;strokeColor2=#008cff;perimeterSpacing=0;" vertex="1" parent="1">
          <mxGeometry x="20" y="345" width="20" height="20" as="geometry" />
        </mxCell>
        <mxCell id="ldyb5yx-wMgwqtrKaOPo-50" value="valvesoftware/minecraft-source2" style="text;html=1;align=center;verticalAlign=middle;whiteSpace=wrap;rounded=0;" vertex="1" parent="1">
          <mxGeometry x="52" y="340" width="180" height="30" as="geometry" />
        </mxCell>
        <mxCell id="ldyb5yx-wMgwqtrKaOPo-51" value="" style="verticalLabelPosition=bottom;shadow=0;dashed=0;align=center;html=1;verticalAlign=top;strokeWidth=1;shape=mxgraph.mockup.containers.userMale;strokeColor=#666666;strokeColor2=#008cff;perimeterSpacing=0;" vertex="1" parent="1">
          <mxGeometry x="20" y="370" width="20" height="20" as="geometry" />
        </mxCell>
        <mxCell id="ldyb5yx-wMgwqtrKaOPo-52" value="roblox/Luau-lang" style="text;html=1;align=center;verticalAlign=middle;whiteSpace=wrap;rounded=0;" vertex="1" parent="1">
          <mxGeometry x="50" y="365" width="100" height="30" as="geometry" />
        </mxCell>
        <mxCell id="ldyb5yx-wMgwqtrKaOPo-53" value="" style="verticalLabelPosition=bottom;shadow=0;dashed=0;align=center;html=1;verticalAlign=top;strokeWidth=1;shape=mxgraph.mockup.containers.userMale;strokeColor=#666666;strokeColor2=#008cff;perimeterSpacing=0;" vertex="1" parent="1">
          <mxGeometry x="20" y="395" width="20" height="20" as="geometry" />
        </mxCell>
        <mxCell id="ldyb5yx-wMgwqtrKaOPo-54" value="cheat-engine/cheat-engine" style="text;html=1;align=center;verticalAlign=middle;whiteSpace=wrap;rounded=0;" vertex="1" parent="1">
          <mxGeometry x="52" y="390" width="150" height="30" as="geometry" />
        </mxCell>
        <mxCell id="ldyb5yx-wMgwqtrKaOPo-55" value="" style="verticalLabelPosition=bottom;shadow=0;dashed=0;align=center;html=1;verticalAlign=top;strokeWidth=1;shape=mxgraph.mockup.containers.userMale;strokeColor=#666666;strokeColor2=#008cff;perimeterSpacing=0;" vertex="1" parent="1">
          <mxGeometry x="20" y="420" width="20" height="20" as="geometry" />
        </mxCell>
        <mxCell id="ldyb5yx-wMgwqtrKaOPo-56" value="hola/la-fecha-de-hoy" style="text;html=1;align=center;verticalAlign=middle;whiteSpace=wrap;rounded=0;" vertex="1" parent="1">
          <mxGeometry x="50" y="415" width="120" height="30" as="geometry" />
        </mxCell>
        <mxCell id="ldyb5yx-wMgwqtrKaOPo-57" value="" style="verticalLabelPosition=bottom;shadow=0;dashed=0;align=center;html=1;verticalAlign=top;strokeWidth=1;shape=mxgraph.mockup.containers.userMale;strokeColor=#666666;strokeColor2=#008cff;perimeterSpacing=0;" vertex="1" parent="1">
          <mxGeometry x="20" y="445" width="20" height="20" as="geometry" />
        </mxCell>
        <mxCell id="ldyb5yx-wMgwqtrKaOPo-58" value="vend10b/ajoute-sur-snap" style="text;html=1;align=center;verticalAlign=middle;whiteSpace=wrap;rounded=0;" vertex="1" parent="1">
          <mxGeometry x="53" y="440" width="140" height="30" as="geometry" />
        </mxCell>
        <mxCell id="ldyb5yx-wMgwqtrKaOPo-59" value="Show more" style="text;html=1;align=center;verticalAlign=middle;whiteSpace=wrap;rounded=0;" vertex="1" parent="1">
          <mxGeometry x="19" y="470" width="70" height="30" as="geometry" />
        </mxCell>
        <mxCell id="ldyb5yx-wMgwqtrKaOPo-60" value="Your teams" style="text;html=1;align=center;verticalAlign=middle;whiteSpace=wrap;rounded=0;" vertex="1" parent="1">
          <mxGeometry x="20" y="510" width="66" height="30" as="geometry" />
        </mxCell>
        <mxCell id="ldyb5yx-wMgwqtrKaOPo-61" value="" style="rounded=1;whiteSpace=wrap;html=1;" vertex="1" parent="1">
          <mxGeometry x="15" y="540" width="330" height="30" as="geometry" />
        </mxCell>
        <mxCell id="ldyb5yx-wMgwqtrKaOPo-62" value="Find a team..." style="text;html=1;align=center;verticalAlign=middle;whiteSpace=wrap;rounded=0;" vertex="1" parent="1">
          <mxGeometry x="15" y="540" width="95" height="30" as="geometry" />
        </mxCell>
        <mxCell id="ldyb5yx-wMgwqtrKaOPo-63" value="" style="verticalLabelPosition=bottom;shadow=0;dashed=0;align=center;html=1;verticalAlign=top;strokeWidth=1;shape=mxgraph.mockup.containers.userMale;strokeColor=#666666;strokeColor2=#008cff;perimeterSpacing=0;" vertex="1" parent="1">
          <mxGeometry x="20" y="585" width="20" height="20" as="geometry" />
        </mxCell>
        <mxCell id="ldyb5yx-wMgwqtrKaOPo-64" value="1337-gang/client-team" style="text;html=1;align=center;verticalAlign=middle;whiteSpace=wrap;rounded=0;" vertex="1" parent="1">
          <mxGeometry x="49" y="580" width="131" height="30" as="geometry" />
        </mxCell>
        <mxCell id="ldyb5yx-wMgwqtrKaOPo-65" value="" style="verticalLabelPosition=bottom;shadow=0;dashed=0;align=center;html=1;verticalAlign=top;strokeWidth=1;shape=mxgraph.mockup.containers.userMale;strokeColor=#666666;strokeColor2=#008cff;perimeterSpacing=0;" vertex="1" parent="1">
          <mxGeometry x="20" y="610" width="20" height="20" as="geometry" />
        </mxCell>
        <mxCell id="ldyb5yx-wMgwqtrKaOPo-66" value="1337-gang/web-team" style="text;html=1;align=center;verticalAlign=middle;whiteSpace=wrap;rounded=0;" vertex="1" parent="1">
          <mxGeometry x="51" y="605" width="121" height="30" as="geometry" />
        </mxCell>
        <mxCell id="ldyb5yx-wMgwqtrKaOPo-67" value="&lt;font style=&quot;font-size: 18px;&quot;&gt;Home&lt;/font&gt;" style="text;html=1;align=center;verticalAlign=middle;whiteSpace=wrap;rounded=0;" vertex="1" parent="1">
          <mxGeometry x="530" y="110" width="60" height="30" as="geometry" />
        </mxCell>
        <mxCell id="ldyb5yx-wMgwqtrKaOPo-68" value="" style="rounded=1;whiteSpace=wrap;html=1;arcSize=4;" vertex="1" parent="1">
          <mxGeometry x="530" y="147" width="670" height="283" as="geometry" />
        </mxCell>
        <mxCell id="ldyb5yx-wMgwqtrKaOPo-69" value="" style="rounded=1;whiteSpace=wrap;html=1;arcSize=4;" vertex="1" parent="1">
          <mxGeometry x="1230" y="147.5" width="280" height="302.5" as="geometry" />
        </mxCell>
        <mxCell id="ldyb5yx-wMgwqtrKaOPo-70" value="" style="rounded=1;whiteSpace=wrap;html=1;arcSize=4;" vertex="1" parent="1">
          <mxGeometry x="530" y="452" width="670" height="140" as="geometry" />
        </mxCell>
        <mxCell id="ldyb5yx-wMgwqtrKaOPo-71" value="" style="rounded=1;whiteSpace=wrap;html=1;arcSize=4;" vertex="1" parent="1">
          <mxGeometry x="530" y="612" width="670" height="260" as="geometry" />
        </mxCell>
        <mxCell id="ldyb5yx-wMgwqtrKaOPo-72" value="" style="rounded=1;whiteSpace=wrap;html=1;arcSize=4;" vertex="1" parent="1">
          <mxGeometry x="530" y="892" width="670" height="180" as="geometry" />
        </mxCell>
        <mxCell id="ldyb5yx-wMgwqtrKaOPo-73" value="" style="rounded=1;whiteSpace=wrap;html=1;arcSize=4;" vertex="1" parent="1">
          <mxGeometry x="1230" y="465" width="280" height="495" as="geometry" />
        </mxCell>
        <mxCell id="ldyb5yx-wMgwqtrKaOPo-74" value="" style="rounded=1;whiteSpace=wrap;html=1;arcSize=12;" vertex="1" parent="1">
          <mxGeometry x="1120" y="110" width="80" height="30" as="geometry" />
        </mxCell>
        <mxCell id="ldyb5yx-wMgwqtrKaOPo-75" value="" style="verticalLabelPosition=bottom;shadow=0;dashed=0;align=center;html=1;verticalAlign=top;strokeWidth=1;shape=mxgraph.mockup.graphics.simpleIcon;strokeColor=#999999;" vertex="1" parent="1">
          <mxGeometry x="1130" y="115" width="20" height="20" as="geometry" />
        </mxCell>
        <mxCell id="ldyb5yx-wMgwqtrKaOPo-76" value="Filter" style="text;html=1;align=center;verticalAlign=middle;whiteSpace=wrap;rounded=0;" vertex="1" parent="1">
          <mxGeometry x="1150" y="110" width="45" height="30" as="geometry" />
        </mxCell>
        <mxCell id="ldyb5yx-wMgwqtrKaOPo-77" value="Send feedback" style="text;html=1;align=center;verticalAlign=middle;whiteSpace=wrap;rounded=0;" vertex="1" parent="1">
          <mxGeometry x="1000" y="110" width="102.5" height="30" as="geometry" />
        </mxCell>
        <mxCell id="ldyb5yx-wMgwqtrKaOPo-79" value="" style="verticalLabelPosition=bottom;shadow=0;dashed=0;align=center;html=1;verticalAlign=top;strokeWidth=1;shape=mxgraph.mockup.containers.userMale;strokeColor=#666666;strokeColor2=#008cff;perimeterSpacing=0;" vertex="1" parent="1">
          <mxGeometry x="550" y="165.5" width="40" height="40" as="geometry" />
        </mxCell>
        <mxCell id="ldyb5yx-wMgwqtrKaOPo-80" value="cpp-source-leaked&amp;nbsp; followed 69 users." style="text;html=1;align=center;verticalAlign=middle;whiteSpace=wrap;rounded=0;" vertex="1" parent="1">
          <mxGeometry x="600" y="170" width="230" height="20" as="geometry" />
        </mxCell>
        <mxCell id="ldyb5yx-wMgwqtrKaOPo-81" value="" style="verticalLabelPosition=bottom;shadow=0;dashed=0;align=center;html=1;verticalAlign=top;strokeWidth=1;shape=mxgraph.mockup.containers.userMale;strokeColor=#666666;strokeColor2=#008cff;" vertex="1" parent="1">
          <mxGeometry x="574" y="189" width="20" height="20" as="geometry" />
        </mxCell>
        <mxCell id="ldyb5yx-wMgwqtrKaOPo-82" value="" style="rounded=1;whiteSpace=wrap;html=1;arcSize=8;" vertex="1" parent="1">
          <mxGeometry x="550" y="220" width="630" height="80" as="geometry" />
        </mxCell>
        <mxCell id="ldyb5yx-wMgwqtrKaOPo-84" value="" style="rounded=1;whiteSpace=wrap;html=1;arcSize=8;" vertex="1" parent="1">
          <mxGeometry x="550" y="310" width="630" height="80" as="geometry" />
        </mxCell>
        <mxCell id="ldyb5yx-wMgwqtrKaOPo-85" value="" style="verticalLabelPosition=bottom;shadow=0;dashed=0;align=center;html=1;verticalAlign=top;strokeWidth=1;shape=mxgraph.mockup.containers.userMale;strokeColor=#666666;strokeColor2=#008cff;perimeterSpacing=0;" vertex="1" parent="1">
          <mxGeometry x="564" y="235" width="40" height="40" as="geometry" />
        </mxCell>
        <mxCell id="ldyb5yx-wMgwqtrKaOPo-86" value="STUTUTUTUTUTUT&amp;nbsp; toyota-supra mk4" style="text;html=1;align=center;verticalAlign=middle;whiteSpace=wrap;rounded=0;" vertex="1" parent="1">
          <mxGeometry x="610" y="232" width="220" height="20" as="geometry" />
        </mxCell>
        <mxCell id="ldyb5yx-wMgwqtrKaOPo-87" value="I love cars." style="text;html=1;align=center;verticalAlign=middle;whiteSpace=wrap;rounded=0;" vertex="1" parent="1">
          <mxGeometry x="610" y="252" width="70" height="20" as="geometry" />
        </mxCell>
        <mxCell id="ldyb5yx-wMgwqtrKaOPo-88" value="1,425,898 repositories" style="text;html=1;align=center;verticalAlign=middle;whiteSpace=wrap;rounded=0;" vertex="1" parent="1">
          <mxGeometry x="610" y="275" width="130" height="20" as="geometry" />
        </mxCell>
        <mxCell id="ldyb5yx-wMgwqtrKaOPo-89" value="-8 followers" style="text;html=1;align=center;verticalAlign=middle;whiteSpace=wrap;rounded=0;" vertex="1" parent="1">
          <mxGeometry x="750" y="275" width="70" height="20" as="geometry" />
        </mxCell>
        <mxCell id="ldyb5yx-wMgwqtrKaOPo-90" value="" style="rounded=1;whiteSpace=wrap;html=1;arcSize=12;" vertex="1" parent="1">
          <mxGeometry x="1090" y="230" width="80" height="30" as="geometry" />
        </mxCell>
        <mxCell id="ldyb5yx-wMgwqtrKaOPo-91" value="Unfollow" style="text;html=1;align=center;verticalAlign=middle;whiteSpace=wrap;rounded=0;" vertex="1" parent="1">
          <mxGeometry x="1103.75" y="230" width="52.5" height="30" as="geometry" />
        </mxCell>
        <mxCell id="ldyb5yx-wMgwqtrKaOPo-93" value="" style="verticalLabelPosition=bottom;shadow=0;dashed=0;align=center;html=1;verticalAlign=top;strokeWidth=1;shape=mxgraph.mockup.containers.userMale;strokeColor=#666666;strokeColor2=#008cff;perimeterSpacing=0;" vertex="1" parent="1">
          <mxGeometry x="564" y="325" width="40" height="40" as="geometry" />
        </mxCell>
        <mxCell id="ldyb5yx-wMgwqtrKaOPo-94" value="AVERTISSEMENT DE BAVARDAGE&amp;nbsp; kalash-criminel" style="text;html=1;align=center;verticalAlign=middle;whiteSpace=wrap;rounded=0;" vertex="1" parent="1">
          <mxGeometry x="610" y="322" width="290" height="20" as="geometry" />
        </mxCell>
        <mxCell id="ldyb5yx-wMgwqtrKaOPo-95" value="Sauvagerie." style="text;html=1;align=center;verticalAlign=middle;whiteSpace=wrap;rounded=0;" vertex="1" parent="1">
          <mxGeometry x="612" y="342" width="70" height="20" as="geometry" />
        </mxCell>
        <mxCell id="ldyb5yx-wMgwqtrKaOPo-96" value="7 repositories" style="text;html=1;align=center;verticalAlign=middle;whiteSpace=wrap;rounded=0;" vertex="1" parent="1">
          <mxGeometry x="610" y="365" width="90" height="20" as="geometry" />
        </mxCell>
        <mxCell id="ldyb5yx-wMgwqtrKaOPo-97" value="1,172,706 followers" style="text;html=1;align=center;verticalAlign=middle;whiteSpace=wrap;rounded=0;" vertex="1" parent="1">
          <mxGeometry x="707" y="365" width="120" height="20" as="geometry" />
        </mxCell>
        <mxCell id="ldyb5yx-wMgwqtrKaOPo-98" value="" style="rounded=1;whiteSpace=wrap;html=1;arcSize=12;" vertex="1" parent="1">
          <mxGeometry x="1090" y="320" width="80" height="30" as="geometry" />
        </mxCell>
        <mxCell id="ldyb5yx-wMgwqtrKaOPo-99" value="Follow" style="text;html=1;align=center;verticalAlign=middle;whiteSpace=wrap;rounded=0;" vertex="1" parent="1">
          <mxGeometry x="1103.75" y="320" width="52.5" height="30" as="geometry" />
        </mxCell>
        <mxCell id="ldyb5yx-wMgwqtrKaOPo-100" value="Show all" style="text;html=1;align=center;verticalAlign=middle;whiteSpace=wrap;rounded=0;" vertex="1" parent="1">
          <mxGeometry x="549" y="399" width="50" height="20" as="geometry" />
        </mxCell>
        <mxCell id="ldyb5yx-wMgwqtrKaOPo-101" value="1 picosecond ago" style="text;html=1;align=center;verticalAlign=middle;whiteSpace=wrap;rounded=0;" vertex="1" parent="1">
          <mxGeometry x="604" y="189" width="106" height="20" as="geometry" />
        </mxCell>
      </root>
    </mxGraphModel>
  </diagram>
</mxfile>
